<?xml version="1.0" encoding="UTF-8"?>
<svg xmlns="http://www.w3.org/2000/svg" xmlns:xlink="http://www.w3.org/1999/xlink" width="121pt" height="121pt" viewBox="0 0 121 121" version="1.1">
<g id="surface1">
<path style="fill-rule:evenodd;fill:rgb(0%,0%,0%);fill-opacity:1;stroke-width:2.3619;stroke-linecap:butt;stroke-linejoin:miter;stroke:rgb(0%,0%,0%);stroke-opacity:1;stroke-miterlimit:4;" d="M 1219.02376 1884.018595 C 987.964876 1888.982438 746.978306 1945.025826 505.030992 2112.035124 C 446.02531 2061.996384 391.022727 2006.033058 342.985537 1945.025826 C 558.032025 1774.974174 823.997934 1668.972107 1219.02376 1656.002066 Z M 1219.02376 1884.018595 " transform="matrix(0.0487903,0,0,0.0487903,0,0)"/>
<path style="fill-rule:evenodd;fill:rgb(0%,0%,0%);fill-opacity:1;stroke-width:2.3619;stroke-linecap:butt;stroke-linejoin:miter;stroke:rgb(0%,0%,0%);stroke-opacity:1;stroke-miterlimit:4;" d="M 770.996901 2280.005165 C 689.974174 2243.016529 613.995351 2196.980888 544.021178 2143.019112 C 781.965393 1980.012913 1027.995868 1935.978822 1219.02376 1931.014979 L 1219.02376 2153.987603 C 1105.97624 2153.987603 930 2188.013946 770.996901 2280.005165 Z M 770.996901 2280.005165 " transform="matrix(0.0487903,0,0,0.0487903,0,0)"/>
<path style="fill-rule:evenodd;fill:rgb(0%,0%,0%);fill-opacity:1;stroke-width:2.3619;stroke-linecap:butt;stroke-linejoin:miter;stroke:rgb(0%,0%,0%);stroke-opacity:1;stroke-miterlimit:4;" d="M 1219.02376 2380.002583 C 1080.996901 2378.001033 948.97469 2349.979339 826.960227 2302.982955 C 942.009298 2245.018079 1068.02686 2206.988636 1219.02376 2200.983988 Z M 1219.02376 2380.002583 " transform="matrix(0.0487903,0,0,0.0487903,0,0)"/>
<path style="fill-rule:evenodd;fill:rgb(0%,0%,0%);fill-opacity:1;stroke-width:2.3619;stroke-linecap:butt;stroke-linejoin:miter;stroke:rgb(0%,0%,0%);stroke-opacity:1;stroke-miterlimit:4;" d="M 1656.002066 2302.982955 C 1535.028409 2351.020145 1403.006198 2378.001033 1266.020145 2380.002583 L 1266.020145 2200.983988 C 1415.97624 2206.988636 1541.993802 2245.018079 1656.002066 2302.982955 Z M 1656.002066 2302.982955 " transform="matrix(0.0487903,0,0,0.0487903,0,0)"/>
<path style="fill-rule:evenodd;fill:rgb(0%,0%,0%);fill-opacity:1;stroke-width:2.3619;stroke-linecap:butt;stroke-linejoin:miter;stroke:rgb(0%,0%,0%);stroke-opacity:1;stroke-miterlimit:4;" d="M 1266.020145 1931.014979 C 1456.967975 1937.019628 1702.037707 1980.012913 1939.981921 2143.979855 C 1870.007748 2196.980888 1794.028926 2243.016529 1713.006198 2280.005165 C 1554.003099 2188.97469 1378.02686 2155.028409 1266.020145 2153.987603 Z M 1266.020145 1931.014979 " transform="matrix(0.0487903,0,0,0.0487903,0,0)"/>
<path style="fill-rule:evenodd;fill:rgb(0%,0%,0%);fill-opacity:1;stroke-width:2.3619;stroke-linecap:butt;stroke-linejoin:miter;stroke:rgb(0%,0%,0%);stroke-opacity:1;stroke-miterlimit:4;" d="M 1266.020145 1656.002066 C 1660.005165 1668.972107 1925.971074 1776.014979 2141.017562 1945.98657 C 2092.980372 2006.993802 2037.977789 2063.03719 1978.011364 2112.995868 C 1737.024793 1945.025826 1496.998967 1888.982438 1266.020145 1884.018595 Z M 1266.020145 1656.002066 " transform="matrix(0.0487903,0,0,0.0487903,0,0)"/>
<path style="fill-rule:evenodd;fill:rgb(0%,0%,0%);fill-opacity:1;stroke-width:2.3619;stroke-linecap:butt;stroke-linejoin:miter;stroke:rgb(0%,0%,0%);stroke-opacity:1;stroke-miterlimit:4;" d="M 1115.983988 1613.008781 C 768.034607 1637.98812 501.988636 1753.997934 314.003099 1906.996384 C 177.017045 1717.970041 95.994318 1486.030475 95.994318 1235.036157 C 95.994318 1160.018079 103.039773 1087.962293 116.970558 1017.027376 C 356.996384 1011.022727 895.973657 1129.034091 1115.983988 1613.008781 Z M 1115.983988 1613.008781 " transform="matrix(0.0487903,0,0,0.0487903,0,0)"/>
<path style="fill-rule:evenodd;fill:rgb(0%,0%,0%);fill-opacity:1;stroke-width:2.3619;stroke-linecap:butt;stroke-linejoin:miter;stroke:rgb(0%,0%,0%);stroke-opacity:1;stroke-miterlimit:4;" d="M 2367.993285 1017.027376 C 2380.963326 1087.962293 2388.008781 1160.018079 2388.008781 1235.036157 C 2388.008781 1486.030475 2306.986054 1719.010847 2170 1908.03719 C 1982.014463 1753.997934 1717.009298 1639.028926 1368.979855 1613.008781 C 1588.029442 1129.034091 2127.006715 1011.022727 2367.993285 1017.027376 Z M 2367.993285 1017.027376 " transform="matrix(0.0487903,0,0,0.0487903,0,0)"/>
<path style="fill-rule:evenodd;fill:rgb(100%,95.686275%,0%);fill-opacity:1;stroke-width:2.3619;stroke-linecap:butt;stroke-linejoin:miter;stroke:rgb(100%,95.686275%,0%);stroke-opacity:1;stroke-miterlimit:4;" d="M 1242.00155 89.028926 C 1305.010331 89.028926 1356.009814 140.028409 1356.009814 203.03719 C 1356.009814 265.965909 1305.010331 316.965393 1242.00155 316.965393 C 1178.992769 316.965393 1127.993285 265.965909 1127.993285 203.03719 C 1127.993285 140.028409 1178.992769 89.028926 1242.00155 89.028926 Z M 1242.00155 89.028926 " transform="matrix(0.0487903,0,0,0.0487903,0,0)"/>
<path style="fill-rule:evenodd;fill:rgb(100%,0%,0%);fill-opacity:1;stroke-width:2.3619;stroke-linecap:butt;stroke-linejoin:miter;stroke:rgb(100%,0%,0%);stroke-opacity:1;stroke-miterlimit:4;" d="M 1592.032541 142.990702 C 1923.008781 248.992769 2188.013946 501.027893 2312.029959 823.03719 C 2031.97314 844.974174 1488.992769 991.007231 1242.00155 1366.017562 C 995.971074 991.007231 452.990702 844.01343 171.97314 823.03719 C 297.990702 497.985537 566.998967 244.028926 903.019112 140.028409 L 866.991219 414.000517 C 1119.026343 460.996901 1119.987087 724.96126 1133.997934 1019.028926 C 1162.980372 1021.030475 1188.039773 1017.027376 1217.022211 1019.028926 C 1217.982955 879.000517 1215.020661 742.975207 1217.022211 603.02686 C 1239.039256 603.02686 1252.009298 603.02686 1274.026343 603.02686 C 1276.027893 742.014463 1272.985537 879.96126 1274.026343 1019.028926 C 1295.963326 1019.989669 1331.030475 1017.98812 1352.967459 1019.028926 C 1366.978306 728.003616 1388.034607 458.995351 1617.01188 414.000517 Z M 1592.032541 142.990702 " transform="matrix(0.0487903,0,0,0.0487903,0,0)"/>
</g>
</svg>
